# AST/ASF file generated using VICON BodyLanguage
# -----------------------------------------------
:version 1.10
:name VICON
:units
  mass 1.0
  length 0.45
  angle deg
:documentation
   .ast/.asf automatically generated from VICON data using
   VICON BodyBuilder and BodyLanguage model FoxedUp or BRILLIANT.MOD
:root
   order TX TY TZ RX RY RZ
   axis XYZ
   position 0 0 0  
   orientation 0 0 0 
:bonedata
  begin
     id 1 
     name lhipjoint
     direction 0.612567 -0.751349 0.245431 
     length 2.42285 
     axis 0 0 0  XYZ
  end
  begin
     id 2 
     name lfemur
     direction 0.34202 -0.939693 0  
     length 7.11304  
     axis 0 0 20  XYZ
    dof rx ry rz
    limits (-160.0 20.0)
           (-70.0 70.0)
           (-60.0 70.0)
  end
  begin
     id 3 
     name ltibia
     direction 0.34202 -0.939693 0   
     length 7.84529   
     axis 0 0 20   XYZ
    dof rx
    limits (-10.0 170.0)
  end
  begin
     id 4 
     name lfoot
     direction 0.0779239 -0.214094 0.9737   
     length 1.97176   
     axis -90 7.62852e-016 20   XYZ
    dof rx rz
    limits (-45.0 90.0)
           (-70.0 20.0)
  end
  begin
     id 5 
     name ltoes
     direction 1.53565e-011 -4.21709e-011 1   
     length 0.993197   
     axis -90 7.62852e-016 20   XYZ
    dof rx
    limits (-90.0 20.0)
  end
  begin
     id 6 
     name rhipjoint
     direction -0.665722 -0.709315 0.231701   
     length 2.56642  
     axis 0 0 0  XYZ 
  end
  begin
     id 7 
     name rfemur
     direction -0.34202 -0.939693 0   
     length 7.32108   
     axis 0 0 -20   XYZ
    dof rx ry rz
    limits (-160.0 20.0)
           (-70.0 70.0)
           (-70.0 60.0)
  end
  begin
     id 8 
     name rtibia
     direction -0.34202 -0.939693 0   
     length 7.81254   
     axis 0 0 -20   XYZ
    dof rx
    limits (-10.0 170.0)
 end
 begin
     id 9 
     name rfoot
     direction -0.0832806 -0.228812 0.969902   
     length 2.08278  
     axis -90 -7.62852e-016 -20   XYZ
    dof rx rz
    limits (-45.0 90.0)
           (-20.0 70.0)
  end
  begin
     id 10 
     name rtoes
     direction -1.53589e-011 -4.22086e-011 1   
     length 1.04609   
     axis -90 -7.62852e-016 -20   XYZ
    dof rx
    limits (-90.0 20.0)
  end
  begin
     id 11 
     name lowerback
     direction -0.00506013 0.988403 -0.151766   
     length 2.01978   
     axis 0 0 0   XYZ
    dof rx ry rz
    limits (-20.0 45.0)
           (-30.0 30.0)
           (-30.0 30.0)
  end
  begin
     id 12 
     name upperback
     direction -0.00836389 0.99968 0.0238859   
     length 2.01276   
     axis 0 0 0   XYZ
    dof rx ry rz
    limits (-20.0 45.0)
           (-30.0 30.0)
           (-30.0 30.0)
  end
  begin
     id 13 
     name thorax
     direction -0.00684136 0.995386 0.0957043   
     length 2.07303   
     axis 0 0 0   XYZ
    dof rx ry rz
    limits (-20.0 45.0)
           (-30.0 30.0)
           (-30.0 30.0)
  end
  begin
     id 14 
     name lowerneck
     direction -0.0161045 0.999661 0.0204485   
     length 1.91243   
     axis 0 0 0   XYZ
    dof rx ry rz
    limits (-20.0 45.0)
           (-30.0 30.0)
           (-30.0 30.0)
  end
  begin
     id 15 
     name upperneck
     direction 0.0553583 0.990946 -0.122319   
     length 1.91574   
     axis 0 0 0   XYZ
    dof rx ry rz
    limits (-20.0 45.0)
           (-30.0 30.0)
           (-30.0 30.0)
  end
  begin
     id 16
     name head
     direction 0.0180273 0.998839 -0.0446756  
     length 1.92693  
     axis 0 0 0   XYZ
    dof rx ry rz
    limits (-20.0 45.0)
           (-30.0 30.0)
           (-30.0 30.0)
  end
  begin
     id 17 
     name lclavicle
     direction 0.945646 0.319323 -0.0615358  
     length 4.0076  
     axis 0 0 0   XYZ
    dof ry rz
    limits (-20.0 10.0)
           (0.0 20.0)
  end
  begin
     id 18 
     name lhumerus
     direction 1 -4.48967e-011 -2.79996e-027   
     length 5.64147   
     axis 180 -30 -90   XYZ
    dof rx ry rz
    limits (-60.0 90.0)
           (-90.0 90.0)
           (-90.0 90.0)
  end
  begin
     id 19
     name lradius
     direction 1 -4.48976e-011 -9.5122e-027   
     length 2.86444   
     axis 180 -30 -90   XYZ
    dof rx
    limits (-10.0 170.0)
  end
  begin
     id 20
     name lwrist
     direction 1 -4.48983e-011 -1.24047e-026   
     length 1.43222   
     axis 9.05591e-015 90 90   XYZ
    dof ry
    limits (-180.0 0.0)
 end
  begin
     id 21 
     name lhand
     direction 1 -4.4892e-011 -2.48094e-026   
     length 0.722123   
     axis 1.58305e-014 90 90   XYZ
    dof rx rz
    limits (-90.0 90.0)
           (-45.0 45.0)
  end
  begin
     id 22 
     name lfingers
     direction 1 -4.48895e-011 -4.96187e-026   
     length 0.582194   
     axis 3.1661e-014 90 90   XYZ
    dof rx
    limits (0.0 90.0)
  end
  begin
     id 23
     name lthumb
     direction 0.707107 -6.34961e-011 0.707107   
     length 0.835918   
     axis -90 45 2.85299e-015   XYZ
    dof rx rz
    limits (-45.0 45.0)
           (-45.0 45.0)
  end
  begin
     id 24 
     name rclavicle
     direction -0.932635 0.324218 -0.15835   
     length 3.65819  
     axis 0 0 0   XYZ 
    dof ry rz
    limits (-10.0 20.0)
           (-20.0 0.0)
  end
  begin
     id 25 
     name rhumerus
     direction -1 -4.48965e-011 -4.02296e-027  
     length 5.44729   
     axis 180 30 90   XYZ
    dof rx ry rz
    limits (-90.0 60.0)
           (-90.0 90.0)
           (-90.0 90.0)
  end
  begin
     id 26 
     name rradius
     direction -1 -4.48957e-011 -8.81087e-027   
     length 3.08821   
     axis 180 30 90   XYZ
    dof rx
    limits (-10.0 170.0)
  end
  begin
     id 27 
     name rwrist
     direction -1 -4.49015e-011 -1.24047e-026   
     length 1.5441   
     axis 9.05591e-015 -90 -90   XYZ
    dof ry
    limits (-180.0 0.0)
  end
  begin
     id 28
     name rhand
     direction -1 -4.4891e-011 -2.48094e-026   
     length 0.821049   
     axis 1.58305e-014 -90 -90   XYZ
    dof rx rz
    limits (-90.0 90.0)
           (-45.0 45.0)
  end
  begin
     id 29
     name rfingers
     direction -1 -4.48985e-011 -4.96187e-026   
     length 0.661951   
     axis 3.1661e-014 -90 -90   XYZ
    dof rx
    limits (0.0 90.0)
  end
  begin
     id 30
     name rthumb
     direction -0.707107 -6.34906e-011 0.707107   
     length 0.950433   
     axis -90 -45 -2.85299e-015   XYZ
    dof rx rz
    limits (-45.0 45.0)
           (-45.0 45.0)
  end
:hierarchy
  begin
    root lhipjoint rhipjoint lowerback
    lhipjoint lfemur
    lfemur ltibia
    ltibia lfoot
    lfoot ltoes
    rhipjoint rfemur
    rfemur rtibia
    rtibia rfoot
    rfoot rtoes
    lowerback upperback
    upperback thorax
    thorax lowerneck lclavicle rclavicle
    lowerneck upperneck
    upperneck head
    lclavicle lhumerus
    lhumerus lradius
    lradius lwrist
    lwrist lhand lthumb
    lhand lfingers
    rclavicle rhumerus
    rhumerus rradius
    rradius rwrist
    rwrist rhand rthumb
    rhand rfingers
  end

#!OML:ASF F:\VICON\USERDATA\INSTALL\rory3\rory3.ASF
:FULLY-SPECIFIED
:DEGREES
669
root 3.06703 17.7782 0.392975 -38.3969 89.355 -37.3318
lowerback 0.43525 0.15897 3.17034
upperback -1.13507 0.237175 -1.39491
thorax -1.39088 0.077634 -3.2162
lowerneck -3.01857 -5.06355 -5.31192
upperneck 9.93829 -7.18128 8.37189
head 3.94839 -3.32002 3.09338
rclavicle -2.14936e-015 9.14409e-015
rhumerus 15.5755 23.4827 -67.2043
rradius 85.5189
rwrist 22.1349
rhand -5.16162 -0.155624
rfingers 7.12502
rthumb 20.6381 -29.0784
lclavicle -2.14936e-015 9.14409e-015
lhumerus -10.6666 -42.055 91.8247
lradius 34.203
lwrist 21.6739
lhand -22.2233 14.1247
lfingers 7.12502
lthumb 4.19312 44.0632
rfemur 0.881193 0.896005 19.2562
rtibia 14.5169
rfoot -15.4455 -1.39829
rtoes -7.01503
lfemur 0 0 0
ltibia 0
lfoot 0 0
ltoes 0
670
root 3.06283 17.7721 0.393326 -36.2331 89.3889 -35.1844
lowerback 0.42819 0.150017 3.13062
upperback -1.15111 0.224698 -1.41385
thorax -1.40442 0.071338 -3.21319
lowerneck -2.94523 -5.03299 -5.34917
upperneck 9.84498 -7.14313 8.46213
head 3.90963 -3.30192 3.13165
rclavicle 5.71506e-016 -1.03368e-014
rhumerus 15.6345 23.6361 -67.3309
rradius 85.2442
rwrist 22.0434
rhand -5.00722 -0.0786303
rfingers 7.12502
rthumb 20.7865 -28.9852
lclavicle 5.71506e-016 -1.03368e-014
lhumerus -10.2701 -42.6692 91.4921
lradius 35.0258
lwrist 21.8236
lhand -22.1407 14.6283
lfingers 7.12502
lthumb 4.27289 44.5651
rfemur 0.903173 0.781496 19.2121
rtibia 14.4762
rfoot -15.4267 -1.23027
rtoes -7.39875
lfemur 0 0 0
ltibia 0
lfoot 0 0
ltoes 0
671
root 3.05914 17.7688 0.393153 -32.8957 89.4752 -31.7999
lowerback 0.498587 0.121456 3.07404
upperback -1.15156 0.187524 -1.45708
thorax -1.44735 0.0523898 -3.2256
lowerneck -2.8868 -5.01641 -5.32827
upperneck 9.75549 -7.12101 8.48561
head 3.87135 -3.29244 3.13868
rclavicle -5.2181e-016 1.19271e-015
rhumerus 15.6509 23.7671 -67.5149
rradius 84.9907
rwrist 21.8657
rhand -4.81098 -0.0367806
rfingers 7.12502
rthumb 20.975 -28.9226
lclavicle -5.2181e-016 1.19271e-015
lhumerus -9.81669 -43.4348 91.0574
lradius 35.9987
lwrist 22.0639
lhand -22.5702 15.1957
lfingers 7.12502
lthumb 3.85811 45.1405
rfemur 1.00397 0.728962 19.1262
rtibia 14.4129
rfoot -15.4444 -1.23116
rtoes -7.61904
lfemur 0 0 0
ltibia 0
lfoot 0 0
ltoes 0
672
root 3.05586 17.7684 0.392544 -36.0208 89.5853 -34.9218
lowerback 0.513947 0.0919607 3.0541
upperback -1.15287 0.148137 -1.48776
thorax -1.46041 0.0325432 -3.24542
lowerneck -2.81449 -5.03673 -5.26458
upperneck 9.63568 -7.14257 8.42513
head 3.82041 -3.30805 3.11115
rclavicle 5.59082e-016 -1.98785e-015
rhumerus 15.6051 23.8686 -67.7332
rradius 84.7099
rwrist 21.4957
rhand -4.37197 -0.0106591
rfingers 7.12502
rthumb 21.3967 -28.8492
lclavicle 5.59082e-016 -1.98785e-015
lhumerus -9.24565 -43.97 90.5809
lradius 37.0542
lwrist 22.0878
lhand -23.0831 15.8336
lfingers 7.12502
lthumb 3.36287 45.7868
rfemur 1.01758 0.68684 19.0812
rtibia 14.4101
rfoot -15.477 -1.31271
rtoes -7.64751
lfemur 0 0 0
ltibia 0
lfoot 0 0
ltoes 0
673
root 3.05373 17.7694 0.392119 -38.5164 89.6139 -37.4674
lowerback 0.468503 0.105794 3.09158
upperback -1.14925 0.165658 -1.50986
thorax -1.4297 0.0414296 -3.28952
lowerneck -2.8335 -5.07187 -5.29612
upperneck 9.57774 -7.18871 8.46296
head 3.8119 -3.33128 3.12513
rclavicle -1.78906e-015 2.78299e-015
rhumerus 15.5042 23.9502 -67.909
rradius 84.3199
rwrist 21.182
rhand -4.10203 -0.0229098
rfingers 7.12502
rthumb 21.656 -28.8318
lclavicle -1.78906e-015 2.78299e-015
lhumerus -8.5515 -44.4412 90.0024
lradius 38.2497
lwrist 22.1628
lhand -23.3755 16.3623
lfingers 7.12502
lthumb 3.08046 46.3198
rfemur 0.942487 0.588059 19.063
rtibia 14.4409
rfoot -15.4244 -1.27649
rtoes -8.3058
lfemur 0 0 0
ltibia 0
lfoot 0 0
ltoes 0
